<svg width="73" height="22" viewBox="0 0 73 22" fill="none" xmlns="http://www.w3.org/2000/svg">
<path fill-rule="evenodd" clip-rule="evenodd" d="M11.1209 16.2174H7.96521C3.04235 16.2174 6.6188 5.76157 10.7632 5.76157H15.7492C16.5487 5.76157 17.9582 5.90885 18.6525 3.93127L19.7254 0.859741H12.8881C9.18544 0.859741 6.30321 2.16409 4.22047 4.35203C0.622996 8.09676 -0.597198 13.9453 0.265356 16.7433C1.08583 19.331 3.31585 21.0351 6.80812 21.0772L9.52202 21.0982H12.867L13.6875 18.6367C14.2976 16.8906 12.9302 16.2174 11.1209 16.2174ZM49.5361 11.8836L50.5668 8.53858H39.5641C37.7338 8.53858 36.9133 9.04349 36.5978 10.0953L35.5669 13.4404H46.5697C48.4 13.4404 49.2205 12.9355 49.5361 11.8836ZM33.926 17.7742L32.8951 21.1192H43.8979C45.7072 21.1192 46.5487 20.6143 46.8643 19.5624L47.8951 16.2174H36.8923C35.083 16.2174 34.2625 16.7223 33.926 17.7742ZM52.1026 4.2258L53.1337 0.880779H42.1307C40.3005 0.880779 39.4799 1.38569 39.1644 2.43758L38.1335 5.78261H49.1364C50.9458 5.78261 51.766 5.2777 52.1026 4.2258ZM35.4828 4.89902C35.0199 1.78541 33.3579 0.880779 29.3186 0.880779H21.9554L17.6637 13.4404H20.3776C21.9975 13.4404 22.818 13.4614 23.6805 11.1473L25.4687 5.76157H28.2036C30.5389 5.76157 30.0129 8.68585 28.8348 11.5259C27.7829 14.0294 25.9526 16.2384 23.7436 16.2384H19.1784C17.3481 16.2384 16.5066 16.7433 16.17 17.7953L15.0339 21.1402H18.379L21.6609 21.1192C24.5641 21.0982 26.9414 20.8878 29.7184 18.3843C32.6637 15.7125 36.0718 8.85412 35.4828 4.89902ZM72.4675 0.859741H66.0931L60.0972 7.23421C59.4027 7.97053 58.6875 8.70685 57.993 9.56944H57.93L60.9173 0.859741H55.7214L48.7156 21.1192H53.912L56.1418 14.7448L58.4559 12.7882L60.2864 18.5526C60.8542 20.3408 61.4437 21.1192 62.706 21.1192H66.6821L62.6005 9.80085L72.4675 0.859741Z" fill="#00B33C"/>
</svg>
