<svg width="118" height="26" viewBox="0 0 118 26" fill="none" xmlns="http://www.w3.org/2000/svg">
<g clip-path="url(#clip0_0_558)">
<path d="M11.0928 23.4734C17.2192 23.4734 22.1857 18.3581 22.1857 12.0479C22.1857 5.73781 17.2192 0.622437 11.0928 0.622437C4.96643 0.622437 0 5.73781 0 12.0479C0 18.3581 4.96643 23.4734 11.0928 23.4734Z" fill="#FC3F1D"/>
<path d="M12.5719 7.09688H11.555C9.66002 7.09688 8.6894 8.09661 8.6894 9.5248C8.6894 11.1434 9.3827 11.9051 10.7693 12.9048L11.9248 13.7141L8.59696 18.8556H6.10107L9.10538 14.2854C7.39524 13.0001 6.42462 11.7623 6.42462 9.71522C6.42462 7.09688 8.18098 5.33545 11.555 5.33545H14.8829V18.9032H12.5719V7.09688Z" fill="white"/>
<path d="M29.8121 24.1399V20.5694H38.178V24.1399H40.9049V18.2367H39.3335V3.38354H29.6272L29.3961 10.4769C29.2575 14.5234 28.9802 16.9037 28.1944 18.2367H27.1313V24.1399H29.8121ZM31.9382 10.8577L32.1231 5.71625H36.4678V18.2367H30.9214C31.4298 17.0465 31.7996 14.9043 31.9382 10.8577ZM47.0984 7.85853C43.9555 7.85853 41.7831 10.1436 41.7831 14.333C41.7831 18.4747 43.9555 20.8074 47.0984 20.8074C50.2414 20.8074 52.46 18.5223 52.46 14.333C52.46 10.1912 50.2414 7.85853 47.0984 7.85853ZM47.0984 18.4747C45.527 18.4747 44.7412 17.1894 44.7412 14.333C44.7412 11.429 45.527 10.1912 47.0984 10.1912C48.6699 10.1912 49.5019 11.429 49.5019 14.333C49.5019 17.237 48.7161 18.4747 47.0984 18.4747ZM59.5779 20.8074C60.9183 20.8074 61.8427 20.5694 62.536 20.0457V17.6654C61.7964 18.1891 60.9645 18.5223 59.7628 18.5223C57.7291 18.5223 56.8971 16.9037 56.8971 14.333C56.8971 11.6194 57.914 10.2388 59.809 10.2388C60.9183 10.2388 61.9813 10.6197 62.5822 11.0005V8.52502C61.9813 8.19178 60.9183 7.95374 59.4854 7.95374C55.834 7.95374 53.939 10.6673 53.939 14.4282C53.8928 18.5223 55.7416 20.8074 59.5779 20.8074ZM73.3053 10.4293V8.09656H63.7377V10.4293H67.1118V20.5694H69.9774V10.4293H73.3053ZM83.2888 12.0955C83.2888 9.09629 81.8098 7.95374 78.7592 7.95374C76.8642 7.95374 75.3852 8.57262 74.507 9.09629V11.5718C75.2927 11.0005 76.9566 10.3341 78.4357 10.3341C79.8223 10.3341 80.4232 10.8101 80.4232 12.1431V12.8572H79.961C75.57 12.8572 73.6288 14.333 73.6288 16.8561C73.6288 19.3792 75.1078 20.8074 77.3264 20.8074C78.9903 20.8074 79.7299 20.2362 80.2845 19.6649H80.4232C80.4694 19.9981 80.5618 20.4266 80.6543 20.6646H83.4275C83.335 19.6649 83.2888 18.6175 83.2888 17.6178V12.0955ZM80.4694 17.6178C80.0996 18.1415 79.4525 18.6175 78.4357 18.6175C77.234 18.6175 76.6331 17.8558 76.6331 16.7609C76.6331 15.2851 77.6037 14.7614 80.0534 14.7614H80.4694V17.6178ZM90.3605 20.5694C93.1799 20.5694 94.8901 19.3316 94.8901 16.9513C94.8901 15.3327 93.9194 14.3806 92.3017 14.0949C93.5959 13.7141 94.4279 12.762 94.4279 11.2862C94.4279 9.1439 93.0413 8.09656 90.4067 8.09656H85.5998V20.5694H90.3605ZM89.9907 10.3341C91.0076 10.3341 91.6084 10.7625 91.6084 11.7146C91.6084 12.5715 91.0076 13.0952 89.8983 13.0952H88.4655V10.3341H89.9907ZM90.0832 15.2851C91.2849 15.2851 91.932 15.7136 91.932 16.7609C91.932 17.9034 91.1924 18.3319 90.0832 18.3319H88.5117V15.2851H90.0832ZM103.903 20.5694H107.138L102.563 13.8569L106.584 8.09656H103.718L99.697 13.8569V8.09656H96.8313V20.5694H99.697V14.4282L103.903 20.5694ZM116.891 12.0955C116.891 9.09629 115.412 7.95374 112.361 7.95374C110.466 7.95374 108.987 8.57262 108.109 9.09629V11.5718C108.895 11.0005 110.559 10.3341 112.038 10.3341C113.424 10.3341 114.025 10.8101 114.025 12.1431V12.8572H113.563C109.172 12.8572 107.231 14.333 107.231 16.8561C107.231 19.3792 108.71 20.8074 110.928 20.8074C112.592 20.8074 113.332 20.2362 113.887 19.6649H114.025C114.071 19.9981 114.164 20.4266 114.256 20.6646H117.03C116.937 19.6649 116.891 18.6175 116.891 17.6178V12.0955ZM114.025 17.6178C113.655 18.1415 113.008 18.6175 111.992 18.6175C110.79 18.6175 110.189 17.8558 110.189 16.7609C110.189 15.2851 111.16 14.7614 113.609 14.7614H114.025V17.6178Z" fill="black"/>
</g>
<defs>
<clipPath id="clip0_0_558">
<rect width="118" height="24.7552" fill="white" transform="translate(0 0.622437)"/>
</clipPath>
</defs>
</svg>
